<mxfile host="app.diagrams.net" modified="2024-02-22T01:08:37.094Z" agent="Mozilla/5.0 (X11; CrOS x86_64 14541.0.0) AppleWebKit/537.36 (KHTML, like Gecko) Chrome/120.0.0.0 Safari/537.36" version="23.1.5" etag="S4zZfaGXr_EqfF269BN3" type="github">
  <diagram name="Page-1" id="n7fsmSk8cDSpKHXYvAG5">
    <mxGraphModel>
      <root>
        <mxCell id="0" />
        <mxCell id="1" parent="0" />
      </root>
    </mxGraphModel>
  </diagram>
</mxfile>
